<svg version="1.1" id="Ebene_1" xmlns="http://www.w3.org/2000/svg" x="0" y="0" viewBox="0 0 595.3 623.9" style="enable-background:new 0 0 595.3 623.9" xml:space="preserve"><style>.st0{fill:#008f36}.st1{fill:#e1007a}.st2{fill:#e6511e}.st3{fill:#41281b}.st4{fill:#a00d59}.st5{fill:#37a8db}.st6{fill:#fff}.st7{fill:#fce90a}.st8{fill:#96bd0d}.st9{fill:#f19300}.st10{fill:#c89d64}.st11{fill:#622280}.st12{fill:#00892e}.st13{fill:#009ddf}.st14{fill:#d8d9da}.st15{fill:#0a71b3}.st16{fill:#40a52b}</style><path class="st0" d="M382.7 581.4h14.2v14.2h-14.2z"/><path class="st1" d="M396.8 581.4H411v14.2h-14.2z"/><path class="st2" d="M382.7 595.6h14.2v14.2h-14.2z"/><path class="st3" d="M396.8 595.6H411v14.2h-14.2z"/><path class="st4" d="M382.7 609.7h14.2v14.2h-14.2z"/><path class="st5" d="M396.9 609.7h14.2v14.2h-14.2z"/><path class="st6" d="M411 609.7h14.2v14.2H411z"/><path class="st0" d="M425.2 609.7h14.2v14.2h-14.2z"/><path class="st1" d="M425.2 595.6h14.2v14.2h-14.2z"/><path class="st7" d="M425.2 581.4h14.2v14.2h-14.2z"/><path class="st2" d="M439.4 609.7h14.2v14.2h-14.2z"/><path class="st3" d="M439.4 595.6h14.2v14.2h-14.2z"/><path class="st8" d="M439.4 581.4h14.2v14.2h-14.2z"/><path class="st4" d="M453.5 609.7h14.2v14.2h-14.2z"/><path class="st5" d="M453.5 595.6h14.2v14.2h-14.2z"/><path class="st9" d="M453.5 581.4h14.2v14.2h-14.2z"/><path class="st2" d="M481.9 581.4h14.2v14.2h-14.2z"/><path class="st10" d="M481.9 595.6h14.2v14.2h-14.2z"/><path class="st8" d="M481.9 609.7h14.2v14.2h-14.2z"/><path class="st4" d="M467.7 581.4h14.2v14.2h-14.2z"/><path class="st11" d="M467.7 595.6h14.2v14.2h-14.2z"/><path class="st6" d="M467.7 609.7h14.2v14.2h-14.2z"/><path class="st2" d="M524.4 609.7h14.2v14.2h-14.2z"/><path class="st3" d="M524.4 595.6h14.2v14.2h-14.2z"/><path class="st12" d="M524.4 581.4h14.2v14.2h-14.2z"/><path class="st13" d="M538.6 609.7h14.2v14.2h-14.2z"/><path class="st5" d="M538.6 595.6h14.2v14.2h-14.2z"/><path class="st6" d="M538.6 581.4h14.2v14.2h-14.2z"/><path class="st0" d="M552.8 609.7H567v14.2h-14.2z"/><path class="st1" d="M552.8 595.6H567v14.2h-14.2z"/><path class="st7" d="M552.8 581.4H567v14.2h-14.2z"/><path class="st2" d="M566.9 609.7h14.2v14.2h-14.2z"/><path class="st3" d="M566.9 595.6h14.2v14.2h-14.2z"/><path class="st8" d="M566.9 581.4h14.2v14.2h-14.2z"/><path class="st4" d="M581.1 609.7h14.2v14.2h-14.2z"/><path class="st5" d="M581.1 595.6h14.2v14.2h-14.2z"/><path class="st14" d="M581.1 581.4h14.2v14.2h-14.2z"/><path class="st0" d="M382.7 538.9h14.2v14.2h-14.2z"/><path class="st1" d="M396.8 538.9H411v14.2h-14.2z"/><path class="st2" d="M382.7 553h14.2v14.2h-14.2z"/><path class="st3" d="M396.8 553H411v14.2h-14.2z"/><path class="st4" d="M382.7 567.2h14.2v14.2h-14.2z"/><path class="st5" d="M396.8 567.2H411v14.2h-14.2z"/><path class="st0" d="M425.2 567.2h14.2v14.2h-14.2z"/><path class="st1" d="M425.2 553h14.2v14.2h-14.2z"/><path class="st7" d="M425.2 538.9h14.2v14.2h-14.2z"/><path class="st2" d="M439.4 567.2h14.2v14.2h-14.2z"/><path class="st3" d="M439.4 553h14.2v14.2h-14.2z"/><path class="st8" d="M439.4 538.9h14.2v14.2h-14.2z"/><path class="st4" d="M453.5 567.2h14.2v14.2h-14.2z"/><path class="st5" d="M453.5 553h14.2v14.2h-14.2z"/><path class="st9" d="M453.5 538.9h14.2v14.2h-14.2z"/><path class="st2" d="M481.9 538.9h14.2v14.2h-14.2z"/><path class="st10" d="M481.9 553h14.2v14.2h-14.2z"/><path class="st8" d="M481.9 567.2h14.2v14.2h-14.2z"/><path class="st4" d="M467.7 538.9h14.2v14.2h-14.2z"/><path class="st11" d="M467.7 553h14.2v14.2h-14.2z"/><path class="st6" d="M467.7 567.2h14.2v14.2h-14.2z"/><path class="st2" d="M524.4 567.2h14.2v14.2h-14.2z"/><path class="st3" d="M524.4 553h14.2v14.2h-14.2z"/><path class="st12" d="M524.4 538.9h14.2v14.2h-14.2z"/><path class="st13" d="M538.6 567.2h14.2v14.2h-14.2z"/><path class="st0" d="M552.8 567.2H567v14.2h-14.2z"/><path class="st1" d="M552.8 553H567v14.2h-14.2z"/><path class="st7" d="M552.8 538.9H567v14.2h-14.2z"/><path class="st2" d="M566.9 567.2h14.2v14.2h-14.2z"/><path class="st3" d="M566.9 553h14.2v14.2h-14.2z"/><path class="st8" d="M566.9 538.9h14.2v14.2h-14.2z"/><path class="st4" d="M581.1 567.2h14.2v14.2h-14.2z"/><path class="st5" d="M581.1 553h14.2v14.2h-14.2z"/><path class="st14" d="M581.1 538.9h14.2v14.2h-14.2z"/><path class="st7" d="M297.6 581.4h14.2v14.2h-14.2z"/><path class="st8" d="M297.6 595.6h14.2v14.2h-14.2z"/><path class="st6" d="M297.6 609.7h14.2v14.2h-14.2z"/><path class="st0" d="M311.8 609.7H326v14.2h-14.2z"/><path class="st1" d="M311.8 595.6H326v14.2h-14.2z"/><path class="st7" d="M311.8 581.4H326v14.2h-14.2z"/><path class="st2" d="M326 609.7h14.2v14.2H326z"/><path class="st3" d="M326 595.6h14.2v14.2H326z"/><path class="st8" d="M326 581.4h14.2v14.2H326z"/><path class="st4" d="M340.2 609.7h14.2v14.2h-14.2z"/><path class="st5" d="M340.2 595.6h14.2v14.2h-14.2z"/><path class="st9" d="M340.2 581.4h14.2v14.2h-14.2z"/><path class="st2" d="M368.5 581.4h14.2v14.2h-14.2z"/><path class="st10" d="M368.5 595.6h14.2v14.2h-14.2z"/><path class="st8" d="M368.5 609.7h14.2v14.2h-14.2z"/><path class="st4" d="M354.3 581.4h14.2v14.2h-14.2z"/><path class="st11" d="M354.3 595.6h14.2v14.2h-14.2z"/><path class="st6" d="M354.3 609.7h14.2v14.2h-14.2z"/><path class="st7" d="M297.6 538.9h14.2v14.2h-14.2z"/><path class="st8" d="M297.6 553h14.2v14.2h-14.2z"/><path class="st6" d="M297.6 567.2h14.2v14.2h-14.2z"/><path class="st0" d="M311.8 567.2H326v14.2h-14.2z"/><path class="st1" d="M311.8 553H326v14.2h-14.2z"/><path class="st7" d="M311.8 538.9H326v14.2h-14.2z"/><path class="st2" d="M326 567.2h14.2v14.2H326z"/><path class="st3" d="M326 553h14.2v14.2H326z"/><path class="st8" d="M326 538.9h14.2v14.2H326z"/><path class="st4" d="M340.2 567.2h14.2v14.2h-14.2z"/><path class="st5" d="M340.2 553h14.2v14.2h-14.2z"/><path class="st9" d="M340.2 538.9h14.2v14.2h-14.2z"/><path class="st2" d="M368.5 538.9h14.2v14.2h-14.2z"/><path class="st10" d="M368.5 553h14.2v14.2h-14.2z"/><path class="st8" d="M368.5 567.2h14.2v14.2h-14.2z"/><path class="st4" d="M354.3 538.9h14.2v14.2h-14.2z"/><path class="st11" d="M354.3 553h14.2v14.2h-14.2z"/><path class="st6" d="M354.3 567.2h14.2v14.2h-14.2z"/><path class="st0" d="M581.1 496.3h14.2v14.2h-14.2z"/><path class="st1" d="M566.9 496.3h14.2v14.2h-14.2z"/><path class="st7" d="M552.8 496.3H567v14.2h-14.2z"/><path class="st2" d="M581.1 510.5h14.2v14.2h-14.2z"/><path class="st3" d="M566.9 510.5h14.2v14.2h-14.2z"/><path class="st8" d="M552.8 510.5H567v14.2h-14.2z"/><path class="st4" d="M581.1 524.7h14.2v14.2h-14.2z"/><path class="st5" d="M566.9 524.7h14.2v14.2h-14.2z"/><path class="st6" d="M552.8 524.7H567v14.2h-14.2z"/><path class="st2" d="M524.4 524.7h14.2v14.2h-14.2z"/><path class="st3" d="M524.4 510.5h14.2v14.2h-14.2z"/><path class="st8" d="M524.4 496.3h14.2v14.2h-14.2z"/><path class="st0" d="M467.7 496.3h14.2v14.2h-14.2z"/><path class="st1" d="M467.7 510.5h14.2v14.2h-14.2z"/><path class="st15" d="M467.7 524.7h14.2v14.2h-14.2z"/><path class="st2" d="M481.9 496.3h14.2v14.2h-14.2z"/><path class="st10" d="M481.9 510.5h14.2v14.2h-14.2z"/><path class="st8" d="M481.9 524.7h14.2v14.2h-14.2z"/><path class="st16" d="M453.5 524.7h14.2v14.2h-14.2z"/><path class="st4" d="M453.5 510.5h14.2v14.2h-14.2z"/><path class="st7" d="M453.5 496.3h14.2v14.2h-14.2z"/><path class="st2" d="M439.4 524.7h14.2v14.2h-14.2z"/><path class="st3" d="M439.4 510.5h14.2v14.2h-14.2z"/><path class="st12" d="M439.4 496.3h14.2v14.2h-14.2z"/><path class="st13" d="M425.2 524.7h14.2v14.2h-14.2z"/><path class="st5" d="M425.2 510.5h14.2v14.2h-14.2z"/><path class="st6" d="M425.2 496.3h14.2v14.2h-14.2z"/><path class="st2" d="M396.8 524.7H411v14.2h-14.2z"/><path class="st3" d="M396.8 510.5H411v14.2h-14.2z"/><path class="st8" d="M396.8 496.3H411v14.2h-14.2z"/><path class="st4" d="M382.7 524.7h14.2v14.2h-14.2z"/><path class="st5" d="M382.7 510.5h14.2v14.2h-14.2z"/><path class="st14" d="M382.7 496.3h14.2v14.2h-14.2z"/><path class="st0" d="M581.1 439.7h14.2v14.2h-14.2z"/><path class="st1" d="M566.9 439.7h14.2v14.2h-14.2z"/><path class="st7" d="M552.8 439.7H567v14.2h-14.2z"/><path class="st2" d="M581.1 425.5h14.2v14.2h-14.2z"/><path class="st3" d="M566.9 425.5h14.2v14.2h-14.2z"/><path class="st8" d="M552.8 425.5H567v14.2h-14.2z"/><path class="st3" d="M524.4 425.5h14.2v14.2h-14.2z"/><path class="st8" d="M524.4 439.7h14.2v14.2h-14.2z"/><path class="st0" d="M467.7 439.7h14.2v14.2h-14.2z"/><path class="st1" d="M467.7 425.5h14.2v14.2h-14.2z"/><path class="st2" d="M481.9 439.7h14.2v14.2h-14.2z"/><path class="st10" d="M481.9 425.5h14.2v14.2h-14.2z"/><path class="st4" d="M453.5 425.5h14.2v14.2h-14.2z"/><path class="st7" d="M453.5 439.7h14.2v14.2h-14.2z"/><path class="st3" d="M439.4 425.5h14.2v14.2h-14.2z"/><path class="st12" d="M439.4 439.7h14.2v14.2h-14.2z"/><path class="st5" d="M425.2 425.5h14.2v14.2h-14.2z"/><path class="st6" d="M425.2 439.7h14.2v14.2h-14.2z"/><path class="st3" d="M396.8 425.5H411v14.2h-14.2z"/><path class="st8" d="M396.8 439.7H411v14.2h-14.2z"/><path class="st5" d="M382.7 425.5h14.2v14.2h-14.2z"/><path class="st14" d="M382.7 439.7h14.2v14.2h-14.2z"/><path class="st0" d="M382.7 482.2h14.2v14.2h-14.2z"/><path class="st1" d="M396.8 482.2H411v14.2h-14.2z"/><path class="st2" d="M382.7 468h14.2v14.2h-14.2z"/><path class="st3" d="M396.8 468H411v14.2h-14.2z"/><path class="st4" d="M382.7 453.8h14.2V468h-14.2z"/><path class="st5" d="M396.8 453.8H411V468h-14.2z"/><path class="st0" d="M425.2 453.8h14.2V468h-14.2z"/><path class="st1" d="M425.2 468h14.2v14.2h-14.2z"/><path class="st7" d="M425.2 482.2h14.2v14.2h-14.2z"/><path class="st2" d="M439.4 453.8h14.2V468h-14.2z"/><path class="st3" d="M439.4 468h14.2v14.2h-14.2z"/><path class="st8" d="M439.4 482.2h14.2v14.2h-14.2z"/><path class="st4" d="M453.5 453.8h14.2V468h-14.2z"/><path class="st5" d="M453.5 468h14.2v14.2h-14.2z"/><path class="st9" d="M453.5 482.2h14.2v14.2h-14.2z"/><path class="st2" d="M481.9 482.2h14.2v14.2h-14.2z"/><path class="st10" d="M481.9 468h14.2v14.2h-14.2z"/><path class="st8" d="M481.9 453.8h14.2V468h-14.2z"/><path class="st4" d="M467.7 482.2h14.2v14.2h-14.2z"/><path class="st11" d="M467.7 468h14.2v14.2h-14.2z"/><path class="st6" d="M467.7 453.8h14.2V468h-14.2z"/><path class="st0" d="M354.3 496.3h14.2v14.2h-14.2z"/><path class="st1" d="M354.3 510.5h14.2v14.2h-14.2z"/><path class="st15" d="M354.3 524.7h14.2v14.2h-14.2z"/><path class="st2" d="M368.5 496.3h14.2v14.2h-14.2z"/><path class="st10" d="M368.5 510.5h14.2v14.2h-14.2z"/><path class="st8" d="M368.5 524.7h14.2v14.2h-14.2z"/><path class="st16" d="M340.2 524.7h14.2v14.2h-14.2z"/><path class="st4" d="M340.2 510.5h14.2v14.2h-14.2z"/><path class="st7" d="M340.2 496.3h14.2v14.2h-14.2z"/><path class="st2" d="M326 524.7h14.2v14.2H326z"/><path class="st3" d="M326 510.5h14.2v14.2H326z"/><path class="st12" d="M326 496.3h14.2v14.2H326z"/><path class="st13" d="M311.8 524.7H326v14.2h-14.2z"/><path class="st5" d="M311.8 510.5H326v14.2h-14.2z"/><path class="st6" d="M311.8 496.3H326v14.2h-14.2z"/><path class="st0" d="M297.6 524.7h14.2v14.2h-14.2z"/><path class="st1" d="M297.6 510.5h14.2v14.2h-14.2z"/><path class="st7" d="M297.6 496.3h14.2v14.2h-14.2z"/><path class="st0" d="M354.3 439.7h14.2v14.2h-14.2z"/><path class="st1" d="M354.3 425.5h14.2v14.2h-14.2z"/><path class="st2" d="M368.5 439.7h14.2v14.2h-14.2z"/><path class="st10" d="M368.5 425.5h14.2v14.2h-14.2z"/><path class="st4" d="M340.2 425.5h14.2v14.2h-14.2z"/><path class="st7" d="M340.2 439.7h14.2v14.2h-14.2z"/><path class="st3" d="M326 425.5h14.2v14.2H326z"/><path class="st12" d="M326 439.7h14.2v14.2H326z"/><path class="st5" d="M311.8 425.5H326v14.2h-14.2z"/><path class="st6" d="M311.8 439.7H326v14.2h-14.2z"/><path class="st1" d="M297.6 425.5h14.2v14.2h-14.2z"/><path class="st7" d="M297.6 439.7h14.2v14.2h-14.2zM297.6 482.2h14.2v14.2h-14.2z"/><path class="st8" d="M297.6 468h14.2v14.2h-14.2z"/><path class="st6" d="M297.6 453.8h14.2V468h-14.2z"/><path class="st0" d="M311.8 453.8H326V468h-14.2z"/><path class="st1" d="M311.8 468H326v14.2h-14.2z"/><path class="st7" d="M311.8 482.2H326v14.2h-14.2z"/><path class="st2" d="M326 453.8h14.2V468H326z"/><path class="st3" d="M326 468h14.2v14.2H326z"/><path class="st8" d="M326 482.2h14.2v14.2H326z"/><path class="st4" d="M340.2 453.8h14.2V468h-14.2z"/><path class="st5" d="M340.2 468h14.2v14.2h-14.2z"/><path class="st9" d="M340.2 482.2h14.2v14.2h-14.2z"/><path class="st2" d="M368.5 482.2h14.2v14.2h-14.2z"/><path class="st10" d="M368.5 468h14.2v14.2h-14.2z"/><path class="st8" d="M368.5 453.8h14.2V468h-14.2z"/><path class="st4" d="M354.3 482.2h14.2v14.2h-14.2z"/><path class="st11" d="M354.3 468h14.2v14.2h-14.2z"/><path class="st6" d="M354.3 453.8h14.2V468h-14.2z"/><path class="st2" d="M524.4 453.8h14.2V468h-14.2z"/><path class="st3" d="M524.4 468h14.2v14.2h-14.2z"/><path class="st12" d="M524.4 482.2h14.2v14.2h-14.2z"/><path class="st0" d="M552.8 453.8H567V468h-14.2z"/><path class="st1" d="M552.8 468H567v14.2h-14.2z"/><path class="st7" d="M552.8 482.2H567v14.2h-14.2z"/><path class="st2" d="M566.9 453.8h14.2V468h-14.2z"/><path class="st3" d="M566.9 468h14.2v14.2h-14.2z"/><path class="st8" d="M566.9 482.2h14.2v14.2h-14.2z"/><path class="st4" d="M581.1 453.8h14.2V468h-14.2z"/><path class="st5" d="M581.1 468h14.2v14.2h-14.2z"/><path class="st14" d="M581.1 482.2h14.2v14.2h-14.2z"/><path class="st0" d="M85 581.4h14.2v14.2H85z"/><path class="st1" d="M99.2 581.4h14.2v14.2H99.2z"/><path class="st7" d="M113.4 581.4h14.2v14.2h-14.2z"/><path class="st2" d="M85 595.6h14.2v14.2H85z"/><path class="st3" d="M99.2 595.6h14.2v14.2H99.2z"/><path class="st8" d="M113.4 595.6h14.2v14.2h-14.2z"/><path class="st4" d="M85 609.7h14.2v14.2H85z"/><path class="st5" d="M99.2 609.7h14.2v14.2H99.2z"/><path class="st6" d="M113.4 609.7h14.2v14.2h-14.2z"/><path class="st0" d="M127.6 609.7h14.2v14.2h-14.2z"/><path class="st1" d="M127.6 595.6h14.2v14.2h-14.2z"/><path class="st7" d="M127.6 581.4h14.2v14.2h-14.2z"/><path class="st2" d="M141.7 609.7h14.2v14.2h-14.2z"/><path class="st3" d="M141.7 595.6h14.2v14.2h-14.2z"/><path class="st8" d="M141.7 581.4h14.2v14.2h-14.2z"/><path class="st4" d="M155.9 609.7h14.2v14.2h-14.2z"/><path class="st5" d="M155.9 595.6h14.2v14.2h-14.2z"/><path class="st9" d="M155.9 581.4h14.2v14.2h-14.2z"/><path class="st0" d="M198.4 581.4h14.2v14.2h-14.2z"/><path class="st1" d="M198.4 595.6h14.2v14.2h-14.2z"/><path class="st15" d="M198.4 609.7h14.2v14.2h-14.2z"/><path class="st2" d="M184.3 581.4h14.2v14.2h-14.2z"/><path class="st10" d="M184.3 595.6h14.2v14.2h-14.2z"/><path class="st8" d="M184.3 609.7h14.2v14.2h-14.2z"/><path class="st4" d="M170.1 581.4h14.2v14.2h-14.2z"/><path class="st11" d="M170.1 595.6h14.2v14.2h-14.2z"/><path class="st6" d="M170.1 609.7h14.2v14.2h-14.2z"/><path class="st16" d="M212.6 609.7h14.2v14.2h-14.2z"/><path class="st4" d="M212.6 595.6h14.2v14.2h-14.2z"/><path class="st7" d="M212.6 581.4h14.2v14.2h-14.2z"/><path class="st2" d="M226.8 609.7H241v14.2h-14.2z"/><path class="st3" d="M226.8 595.6H241v14.2h-14.2z"/><path class="st12" d="M226.8 581.4H241v14.2h-14.2z"/><path class="st13" d="M240.9 609.7h14.2v14.2h-14.2z"/><path class="st5" d="M240.9 595.6h14.2v14.2h-14.2z"/><path class="st6" d="M240.9 581.4h14.2v14.2h-14.2z"/><path class="st0" d="M255.1 609.7h14.2v14.2h-14.2z"/><path class="st1" d="M255.1 595.6h14.2v14.2h-14.2z"/><path class="st7" d="M255.1 581.4h14.2v14.2h-14.2z"/><path class="st2" d="M269.3 609.7h14.2v14.2h-14.2z"/><path class="st3" d="M269.3 595.6h14.2v14.2h-14.2z"/><path class="st8" d="M269.3 581.4h14.2v14.2h-14.2z"/><path class="st4" d="M283.5 609.7h14.2v14.2h-14.2z"/><path class="st5" d="M283.5 595.6h14.2v14.2h-14.2z"/><path class="st14" d="M283.5 581.4h14.2v14.2h-14.2z"/><path class="st0" d="M85 538.9h14.2v14.2H85z"/><path class="st1" d="M99.2 538.9h14.2v14.2H99.2z"/><path class="st7" d="M113.4 538.9h14.2v14.2h-14.2z"/><path class="st2" d="M85 553h14.2v14.2H85z"/><path class="st3" d="M99.2 553h14.2v14.2H99.2z"/><path class="st8" d="M113.4 553h14.2v14.2h-14.2z"/><path class="st4" d="M85 567.2h14.2v14.2H85z"/><path class="st5" d="M99.2 567.2h14.2v14.2H99.2z"/><path class="st6" d="M113.4 567.2h14.2v14.2h-14.2z"/><path class="st0" d="M127.6 567.2h14.2v14.2h-14.2z"/><path class="st1" d="M127.6 553h14.2v14.2h-14.2z"/><path class="st7" d="M127.6 538.9h14.2v14.2h-14.2z"/><path class="st2" d="M141.7 567.2h14.2v14.2h-14.2z"/><path class="st3" d="M141.7 553h14.2v14.2h-14.2z"/><path class="st8" d="M141.7 538.9h14.2v14.2h-14.2z"/><path class="st4" d="M155.9 567.2h14.2v14.2h-14.2z"/><path class="st5" d="M155.9 553h14.2v14.2h-14.2z"/><path class="st9" d="M155.9 538.9h14.2v14.2h-14.2z"/><path class="st0" d="M198.4 538.9h14.2v14.2h-14.2z"/><path class="st1" d="M198.4 553h14.2v14.2h-14.2z"/><path class="st15" d="M198.4 567.2h14.2v14.2h-14.2z"/><path class="st2" d="M184.3 538.9h14.2v14.2h-14.2z"/><path class="st10" d="M184.3 553h14.2v14.2h-14.2z"/><path class="st8" d="M184.3 567.2h14.2v14.2h-14.2z"/><path class="st4" d="M170.1 538.9h14.2v14.2h-14.2z"/><path class="st11" d="M170.1 553h14.2v14.2h-14.2z"/><path class="st6" d="M170.1 567.2h14.2v14.2h-14.2z"/><path class="st16" d="M212.6 567.2h14.2v14.2h-14.2z"/><path class="st4" d="M212.6 553h14.2v14.2h-14.2z"/><path class="st7" d="M212.6 538.9h14.2v14.2h-14.2z"/><path class="st2" d="M226.8 567.2H241v14.2h-14.2z"/><path class="st3" d="M226.8 553H241v14.2h-14.2z"/><path class="st12" d="M226.8 538.9H241v14.2h-14.2z"/><path class="st13" d="M240.9 567.2h14.2v14.2h-14.2z"/><path class="st5" d="M240.9 553h14.2v14.2h-14.2z"/><path class="st6" d="M240.9 538.9h14.2v14.2h-14.2z"/><path class="st0" d="M255.1 567.2h14.2v14.2h-14.2z"/><path class="st1" d="M255.1 553h14.2v14.2h-14.2z"/><path class="st7" d="M255.1 538.9h14.2v14.2h-14.2z"/><path class="st2" d="M269.3 567.2h14.2v14.2h-14.2z"/><path class="st3" d="M269.3 553h14.2v14.2h-14.2z"/><path class="st8" d="M269.3 538.9h14.2v14.2h-14.2z"/><path class="st4" d="M283.5 567.2h14.2v14.2h-14.2z"/><path class="st5" d="M283.5 553h14.2v14.2h-14.2z"/><path class="st14" d="M283.5 538.9h14.2v14.2h-14.2z"/><path class="st7" d="M0 581.4h14.2v14.2H0z"/><path class="st8" d="M0 595.6h14.2v14.2H0z"/><path class="st6" d="M0 609.7h14.2v14.2H0z"/><path class="st0" d="M14.2 609.7h14.2v14.2H14.2z"/><path class="st1" d="M14.2 595.6h14.2v14.2H14.2z"/><path class="st7" d="M14.2 581.4h14.2v14.2H14.2z"/><path class="st2" d="M28.3 609.7h14.2v14.2H28.3z"/><path class="st3" d="M28.3 595.6h14.2v14.2H28.3z"/><path class="st8" d="M28.3 581.4h14.2v14.2H28.3z"/><path class="st4" d="M42.5 609.7h14.2v14.2H42.5z"/><path class="st5" d="M42.5 595.6h14.2v14.2H42.5z"/><path class="st9" d="M42.5 581.4h14.2v14.2H42.5z"/><path class="st2" d="M70.9 581.4h14.2v14.2H70.9z"/><path class="st10" d="M70.9 595.6h14.2v14.2H70.9z"/><path class="st8" d="M70.9 609.7h14.2v14.2H70.9z"/><path class="st4" d="M56.7 581.4h14.2v14.2H56.7z"/><path class="st11" d="M56.7 595.6h14.2v14.2H56.7z"/><path class="st6" d="M56.7 609.7h14.2v14.2H56.7z"/><path class="st0" d="M14.2 567.2h14.2v14.2H14.2z"/><path class="st1" d="M14.2 553h14.2v14.2H14.2z"/><path class="st7" d="M14.2 538.9h14.2v14.2H14.2z"/><path class="st2" d="M28.3 567.2h14.2v14.2H28.3z"/><path class="st3" d="M28.3 553h14.2v14.2H28.3z"/><path class="st8" d="M28.3 538.9h14.2v14.2H28.3z"/><path class="st4" d="M42.5 567.2h14.2v14.2H42.5z"/><path class="st5" d="M42.5 553h14.2v14.2H42.5z"/><path class="st9" d="M42.5 538.9h14.2v14.2H42.5z"/><path class="st2" d="M70.9 538.9h14.2v14.2H70.9z"/><path class="st10" d="M70.9 553h14.2v14.2H70.9z"/><path class="st8" d="M70.9 567.2h14.2v14.2H70.9z"/><path class="st4" d="M56.7 538.9h14.2v14.2H56.7z"/><path class="st11" d="M56.7 553h14.2v14.2H56.7z"/><path class="st6" d="M56.7 567.2h14.2v14.2H56.7z"/><path class="st0" d="M283.5 496.3h14.2v14.2h-14.2z"/><path class="st1" d="M269.3 496.3h14.2v14.2h-14.2z"/><path class="st7" d="M255.1 496.3h14.2v14.2h-14.2z"/><path class="st2" d="M283.5 510.5h14.2v14.2h-14.2z"/><path class="st3" d="M269.3 510.5h14.2v14.2h-14.2z"/><path class="st8" d="M255.1 510.5h14.2v14.2h-14.2z"/><path class="st4" d="M283.5 524.7h14.2v14.2h-14.2z"/><path class="st5" d="M269.3 524.7h14.2v14.2h-14.2z"/><path class="st6" d="M255.1 524.7h14.2v14.2h-14.2z"/><path class="st0" d="M240.9 524.7h14.2v14.2h-14.2z"/><path class="st1" d="M240.9 510.5h14.2v14.2h-14.2z"/><path class="st7" d="M240.9 496.3h14.2v14.2h-14.2z"/><path class="st2" d="M226.8 524.7H241v14.2h-14.2z"/><path class="st3" d="M226.8 510.5H241v14.2h-14.2z"/><path class="st8" d="M226.8 496.3H241v14.2h-14.2z"/><path class="st4" d="M212.6 524.7h14.2v14.2h-14.2z"/><path class="st5" d="M212.6 510.5h14.2v14.2h-14.2z"/><path class="st9" d="M212.6 496.3h14.2v14.2h-14.2z"/><path class="st0" d="M170.1 496.3h14.2v14.2h-14.2z"/><path class="st1" d="M170.1 510.5h14.2v14.2h-14.2z"/><path class="st15" d="M170.1 524.7h14.2v14.2h-14.2z"/><path class="st2" d="M184.3 496.3h14.2v14.2h-14.2z"/><path class="st10" d="M184.3 510.5h14.2v14.2h-14.2z"/><path class="st8" d="M184.3 524.7h14.2v14.2h-14.2z"/><path class="st4" d="M198.4 496.3h14.2v14.2h-14.2z"/><path class="st11" d="M198.4 510.5h14.2v14.2h-14.2z"/><path class="st6" d="M198.4 524.7h14.2v14.2h-14.2z"/><path class="st16" d="M155.9 524.7h14.2v14.2h-14.2z"/><path class="st4" d="M155.9 510.5h14.2v14.2h-14.2z"/><path class="st7" d="M155.9 496.3h14.2v14.2h-14.2z"/><path class="st2" d="M141.7 524.7h14.2v14.2h-14.2z"/><path class="st3" d="M141.7 510.5h14.2v14.2h-14.2z"/><path class="st12" d="M141.7 496.3h14.2v14.2h-14.2z"/><path class="st13" d="M127.6 524.7h14.2v14.2h-14.2z"/><path class="st5" d="M127.6 510.5h14.2v14.2h-14.2z"/><path class="st6" d="M127.6 496.3h14.2v14.2h-14.2z"/><path class="st0" d="M113.4 524.7h14.2v14.2h-14.2z"/><path class="st1" d="M113.4 510.5h14.2v14.2h-14.2z"/><path class="st7" d="M113.4 496.3h14.2v14.2h-14.2z"/><path class="st2" d="M99.2 524.7h14.2v14.2H99.2z"/><path class="st3" d="M99.2 510.5h14.2v14.2H99.2z"/><path class="st8" d="M99.2 496.3h14.2v14.2H99.2z"/><path class="st4" d="M85 524.7h14.2v14.2H85z"/><path class="st5" d="M85 510.5h14.2v14.2H85z"/><path class="st14" d="M85 496.3h14.2v14.2H85z"/><path class="st7" d="M255.1 439.7h14.2v14.2h-14.2z"/><path class="st8" d="M255.1 425.5h14.2v14.2h-14.2z"/><path class="st1" d="M240.9 425.5h14.2v14.2h-14.2z"/><path class="st7" d="M240.9 439.7h14.2v14.2h-14.2z"/><path class="st3" d="M226.8 425.5H241v14.2h-14.2z"/><path class="st8" d="M226.8 439.7H241v14.2h-14.2z"/><path class="st5" d="M212.6 425.5h14.2v14.2h-14.2z"/><path class="st9" d="M212.6 439.7h14.2v14.2h-14.2z"/><path class="st0" d="M170.1 439.7h14.2v14.2h-14.2z"/><path class="st1" d="M170.1 425.5h14.2v14.2h-14.2z"/><path class="st2" d="M184.3 439.7h14.2v14.2h-14.2z"/><path class="st10" d="M184.3 425.5h14.2v14.2h-14.2z"/><path class="st4" d="M198.4 439.7h14.2v14.2h-14.2z"/><path class="st11" d="M198.4 425.5h14.2v14.2h-14.2z"/><path class="st4" d="M155.9 425.5h14.2v14.2h-14.2z"/><path class="st7" d="M155.9 439.7h14.2v14.2h-14.2z"/><path class="st3" d="M141.7 425.5h14.2v14.2h-14.2z"/><path class="st12" d="M141.7 439.7h14.2v14.2h-14.2z"/><path class="st5" d="M127.6 425.5h14.2v14.2h-14.2z"/><path class="st6" d="M127.6 439.7h14.2v14.2h-14.2z"/><path class="st1" d="M113.4 425.5h14.2v14.2h-14.2z"/><path class="st7" d="M113.4 439.7h14.2v14.2h-14.2z"/><path class="st3" d="M99.2 425.5h14.2v14.2H99.2z"/><path class="st8" d="M99.2 439.7h14.2v14.2H99.2z"/><path class="st5" d="M85 425.5h14.2v14.2H85z"/><path class="st14" d="M85 439.7h14.2v14.2H85z"/><path class="st0" d="M85 482.2h14.2v14.2H85z"/><path class="st1" d="M99.2 482.2h14.2v14.2H99.2z"/><path class="st7" d="M113.4 482.2h14.2v14.2h-14.2z"/><path class="st2" d="M85 468h14.2v14.2H85z"/><path class="st3" d="M99.2 468h14.2v14.2H99.2z"/><path class="st8" d="M113.4 468h14.2v14.2h-14.2z"/><path class="st4" d="M85 453.8h14.2V468H85z"/><path class="st5" d="M99.2 453.8h14.2V468H99.2z"/><path class="st6" d="M113.4 453.8h14.2V468h-14.2z"/><path class="st0" d="M127.6 453.8h14.2V468h-14.2z"/><path class="st1" d="M127.6 468h14.2v14.2h-14.2z"/><path class="st7" d="M127.6 482.2h14.2v14.2h-14.2z"/><path class="st2" d="M141.7 453.8h14.2V468h-14.2z"/><path class="st3" d="M141.7 468h14.2v14.2h-14.2z"/><path class="st8" d="M141.7 482.2h14.2v14.2h-14.2z"/><path class="st4" d="M155.9 453.8h14.2V468h-14.2z"/><path class="st5" d="M155.9 468h14.2v14.2h-14.2z"/><path class="st9" d="M155.9 482.2h14.2v14.2h-14.2z"/><path class="st0" d="M198.4 482.2h14.2v14.2h-14.2z"/><path class="st1" d="M198.4 468h14.2v14.2h-14.2z"/><path class="st15" d="M198.4 453.8h14.2V468h-14.2z"/><path class="st2" d="M184.3 482.2h14.2v14.2h-14.2z"/><path class="st10" d="M184.3 468h14.2v14.2h-14.2z"/><path class="st8" d="M184.3 453.8h14.2V468h-14.2z"/><path class="st4" d="M170.1 482.2h14.2v14.2h-14.2z"/><path class="st11" d="M170.1 468h14.2v14.2h-14.2z"/><path class="st6" d="M170.1 453.8h14.2V468h-14.2z"/><path class="st0" d="M56.7 496.3h14.2v14.2H56.7z"/><path class="st1" d="M56.7 510.5h14.2v14.2H56.7z"/><path class="st15" d="M56.7 524.7h14.2v14.2H56.7z"/><path class="st2" d="M70.9 496.3h14.2v14.2H70.9z"/><path class="st10" d="M70.9 510.5h14.2v14.2H70.9z"/><path class="st8" d="M70.9 524.7h14.2v14.2H70.9z"/><path class="st16" d="M42.5 524.7h14.2v14.2H42.5z"/><path class="st4" d="M42.5 510.5h14.2v14.2H42.5z"/><path class="st7" d="M42.5 496.3h14.2v14.2H42.5z"/><path class="st2" d="M28.3 524.7h14.2v14.2H28.3z"/><path class="st3" d="M28.3 510.5h14.2v14.2H28.3z"/><path class="st12" d="M28.3 496.3h14.2v14.2H28.3z"/><path class="st13" d="M14.2 524.7h14.2v14.2H14.2z"/><path class="st2" d="M70.9 439.7h14.2v14.2H70.9z"/><path class="st10" d="M70.9 425.5h14.2v14.2H70.9z"/><path class="st3" d="M28.3 425.5h14.2v14.2H28.3z"/><path class="st12" d="M28.3 439.7h14.2v14.2H28.3z"/><path class="st2" d="M28.3 453.8h14.2V468H28.3z"/><path class="st3" d="M28.3 468h14.2v14.2H28.3z"/><path class="st8" d="M28.3 482.2h14.2v14.2H28.3z"/><path class="st2" d="M70.9 482.2h14.2v14.2H70.9z"/><path class="st10" d="M70.9 468h14.2v14.2H70.9z"/><path class="st8" d="M70.9 453.8h14.2V468H70.9z"/><path class="st16" d="M212.6 453.8h14.2V468h-14.2z"/><path class="st4" d="M212.6 468h14.2v14.2h-14.2z"/><path class="st7" d="M212.6 482.2h14.2v14.2h-14.2z"/><path class="st2" d="M226.8 453.8H241V468h-14.2z"/><path class="st3" d="M226.8 468H241v14.2h-14.2z"/><path class="st12" d="M226.8 482.2H241v14.2h-14.2z"/><path class="st13" d="M240.9 453.8h14.2V468h-14.2z"/><path class="st5" d="M240.9 468h14.2v14.2h-14.2z"/><path class="st6" d="M240.9 482.2h14.2v14.2h-14.2z"/><path class="st0" d="M255.1 453.8h14.2V468h-14.2z"/><path class="st1" d="M255.1 468h14.2v14.2h-14.2z"/><path class="st7" d="M255.1 482.2h14.2v14.2h-14.2z"/><path class="st0" d="M581.1 411.3h14.2v14.2h-14.2z"/><path class="st1" d="M566.9 411.3h14.2v14.2h-14.2z"/><path class="st7" d="M552.8 411.3H567v14.2h-14.2z"/><path class="st2" d="M581.1 397.1h14.2v14.2h-14.2z"/><path class="st3" d="M566.9 397.1h14.2v14.2h-14.2z"/><path class="st8" d="M552.8 397.1H567v14.2h-14.2z"/><path class="st4" d="M581.1 383h14.2v14.2h-14.2z"/><path class="st5" d="M566.9 383h14.2v14.2h-14.2z"/><path class="st6" d="M552.8 383H567v14.2h-14.2z"/><path class="st0" d="M467.7 411.3h14.2v14.2h-14.2z"/><path class="st1" d="M467.7 397.1h14.2v14.2h-14.2z"/><path class="st15" d="M467.7 383h14.2v14.2h-14.2z"/><path class="st2" d="M481.9 411.3h14.2v14.2h-14.2z"/><path class="st10" d="M481.9 397.1h14.2v14.2h-14.2z"/><path class="st8" d="M481.9 383h14.2v14.2h-14.2z"/><path class="st16" d="M453.5 383h14.2v14.2h-14.2z"/><path class="st4" d="M453.5 397.1h14.2v14.2h-14.2z"/><path class="st7" d="M453.5 411.3h14.2v14.2h-14.2z"/><path class="st2" d="M439.4 383h14.2v14.2h-14.2z"/><path class="st3" d="M439.4 397.1h14.2v14.2h-14.2z"/><path class="st12" d="M439.4 411.3h14.2v14.2h-14.2z"/><path class="st13" d="M425.2 383h14.2v14.2h-14.2z"/><path class="st5" d="M425.2 397.1h14.2v14.2h-14.2z"/><path class="st6" d="M425.2 411.3h14.2v14.2h-14.2z"/><path class="st2" d="M396.8 383H411v14.2h-14.2z"/><path class="st3" d="M396.8 397.1H411v14.2h-14.2z"/><path class="st8" d="M396.8 411.3H411v14.2h-14.2z"/><path class="st4" d="M382.7 383h14.2v14.2h-14.2z"/><path class="st5" d="M382.7 397.1h14.2v14.2h-14.2z"/><path class="st14" d="M382.7 411.3h14.2v14.2h-14.2z"/><path class="st0" d="M382.7 340.4h14.2v14.2h-14.2z"/><path class="st1" d="M396.8 340.4H411v14.2h-14.2z"/><path class="st2" d="M382.7 354.6h14.2v14.2h-14.2z"/><path class="st3" d="M396.8 354.6H411v14.2h-14.2z"/><path class="st4" d="M382.7 368.8h14.2V383h-14.2z"/><path class="st5" d="M396.8 368.8H411V383h-14.2z"/><path class="st0" d="M425.2 368.8h14.2V383h-14.2z"/><path class="st1" d="M425.2 354.6h14.2v14.2h-14.2z"/><path class="st7" d="M425.2 340.4h14.2v14.2h-14.2z"/><path class="st2" d="M439.4 368.8h14.2V383h-14.2z"/><path class="st3" d="M439.4 354.6h14.2v14.2h-14.2z"/><path class="st8" d="M439.4 340.4h14.2v14.2h-14.2z"/><path class="st4" d="M453.5 368.8h14.2V383h-14.2z"/><path class="st5" d="M453.5 354.6h14.2v14.2h-14.2z"/><path class="st9" d="M453.5 340.4h14.2v14.2h-14.2z"/><path class="st2" d="M481.9 340.4h14.2v14.2h-14.2z"/><path class="st10" d="M481.9 354.6h14.2v14.2h-14.2z"/><path class="st8" d="M481.9 368.8h14.2V383h-14.2z"/><path class="st4" d="M467.7 340.4h14.2v14.2h-14.2z"/><path class="st11" d="M467.7 354.6h14.2v14.2h-14.2z"/><path class="st6" d="M467.7 368.8h14.2V383h-14.2z"/><path class="st0" d="M552.8 368.8H567V383h-14.2z"/><path class="st1" d="M552.8 354.6H567v14.2h-14.2z"/><path class="st2" d="M566.9 368.8h14.2V383h-14.2z"/><path class="st3" d="M566.9 354.6h14.2v14.2h-14.2z"/><path class="st4" d="M581.1 368.8h14.2V383h-14.2z"/><path class="st5" d="M581.1 354.6h14.2v14.2h-14.2z"/><path class="st14" d="M581.1 340.4h14.2v14.2h-14.2z"/><path class="st0" d="M581.1 297.9h14.2v14.2h-14.2z"/><path class="st2" d="M581.1 312.1h14.2v14.2h-14.2z"/><path class="st4" d="M581.1 326.3h14.2v14.2h-14.2z"/><path class="st0" d="M467.7 297.9h14.2v14.2h-14.2z"/><path class="st1" d="M467.7 312.1h14.2v14.2h-14.2z"/><path class="st15" d="M467.7 326.3h14.2v14.2h-14.2z"/><path class="st2" d="M481.9 297.9h14.2v14.2h-14.2z"/><path class="st10" d="M481.9 312.1h14.2v14.2h-14.2z"/><path class="st8" d="M481.9 326.3h14.2v14.2h-14.2z"/><path class="st16" d="M453.5 326.3h14.2v14.2h-14.2z"/><path class="st4" d="M453.5 312.1h14.2v14.2h-14.2z"/><path class="st7" d="M453.5 297.9h14.2v14.2h-14.2z"/><path class="st2" d="M439.4 326.3h14.2v14.2h-14.2z"/><path class="st3" d="M439.4 312.1h14.2v14.2h-14.2z"/><path class="st12" d="M439.4 297.9h14.2v14.2h-14.2z"/><path class="st13" d="M425.2 326.3h14.2v14.2h-14.2z"/><path class="st5" d="M425.2 312.1h14.2v14.2h-14.2z"/><path class="st6" d="M425.2 297.9h14.2v14.2h-14.2z"/><path class="st2" d="M396.8 326.3H411v14.2h-14.2z"/><path class="st3" d="M396.8 312.1H411v14.2h-14.2z"/><path class="st8" d="M396.8 297.9H411v14.2h-14.2z"/><path class="st4" d="M382.7 326.3h14.2v14.2h-14.2z"/><path class="st5" d="M382.7 312.1h14.2v14.2h-14.2z"/><path class="st14" d="M382.7 297.9h14.2v14.2h-14.2z"/><path class="st0" d="M382.7 170.4h14.2v14.2h-14.2z"/><path class="st1" d="M396.8 170.4H411v14.2h-14.2z"/><path class="st2" d="M382.7 184.5h14.2v14.2h-14.2z"/><path class="st3" d="M396.8 184.5H411v14.2h-14.2z"/><path class="st4" d="M382.7 198.7h14.2v14.2h-14.2z"/><path class="st5" d="M396.8 198.7H411v14.2h-14.2z"/><path class="st2" d="M439.4 198.7h14.2v14.2h-14.2z"/><path class="st3" d="M439.4 184.5h14.2v14.2h-14.2z"/><path class="st8" d="M439.4 170.4h14.2v14.2h-14.2z"/><path class="st4" d="M453.5 198.7h14.2v14.2h-14.2z"/><path class="st5" d="M453.5 184.5h14.2v14.2h-14.2z"/><path class="st9" d="M453.5 170.4h14.2v14.2h-14.2z"/><path class="st2" d="M481.9 170.4h14.2v14.2h-14.2z"/><path class="st10" d="M481.9 184.5h14.2v14.2h-14.2z"/><path class="st8" d="M481.9 198.7h14.2v14.2h-14.2z"/><path class="st4" d="M467.7 170.4h14.2v14.2h-14.2z"/><path class="st11" d="M467.7 184.5h14.2v14.2h-14.2z"/><path class="st6" d="M467.7 198.7h14.2v14.2h-14.2z"/><path class="st4" d="M581.1 198.7h14.2v14.2h-14.2z"/><path class="st5" d="M581.1 184.5h14.2v14.2h-14.2z"/><path class="st14" d="M581.1 170.4h14.2v14.2h-14.2z"/><path class="st0" d="M382.7 127.8h14.2V142h-14.2z"/><path class="st1" d="M396.8 127.8H411V142h-14.2z"/><path class="st2" d="M382.7 142h14.2v14.2h-14.2z"/><path class="st3" d="M396.8 142H411v14.2h-14.2z"/><path class="st4" d="M382.7 156.2h14.2v14.2h-14.2z"/><path class="st5" d="M396.8 156.2H411v14.2h-14.2z"/><path class="st2" d="M439.4 156.2h14.2v14.2h-14.2z"/><path class="st3" d="M439.4 142h14.2v14.2h-14.2z"/><path class="st8" d="M439.4 127.8h14.2V142h-14.2z"/><path class="st4" d="M453.5 156.2h14.2v14.2h-14.2z"/><path class="st5" d="M453.5 142h14.2v14.2h-14.2z"/><path class="st2" d="M481.9 127.8h14.2V142h-14.2z"/><path class="st10" d="M481.9 142h14.2v14.2h-14.2z"/><path class="st8" d="M481.9 156.2h14.2v14.2h-14.2z"/><path class="st4" d="M467.7 127.8h14.2V142h-14.2z"/><path class="st11" d="M467.7 142h14.2v14.2h-14.2z"/><path class="st6" d="M467.7 156.2h14.2v14.2h-14.2z"/><path class="st4" d="M581.1 156.2h14.2v14.2h-14.2z"/><path class="st5" d="M581.1 142h14.2v14.2h-14.2z"/><path class="st14" d="M581.1 127.8h14.2V142h-14.2z"/><path class="st0" d="M581.1 241.2h14.2v14.2h-14.2z"/><path class="st2" d="M581.1 227.1h14.2v14.2h-14.2z"/><path class="st4" d="M581.1 212.9h14.2v14.2h-14.2z"/><path class="st0" d="M467.7 241.2h14.2v14.2h-14.2z"/><path class="st1" d="M467.7 227.1h14.2v14.2h-14.2z"/><path class="st15" d="M467.7 212.9h14.2v14.2h-14.2z"/><path class="st2" d="M481.9 241.2h14.2v14.2h-14.2z"/><path class="st10" d="M481.9 227.1h14.2v14.2h-14.2z"/><path class="st8" d="M481.9 212.9h14.2v14.2h-14.2z"/><path class="st16" d="M453.5 212.9h14.2v14.2h-14.2z"/><path class="st4" d="M453.5 227.1h14.2v14.2h-14.2z"/><path class="st7" d="M453.5 241.2h14.2v14.2h-14.2z"/><path class="st2" d="M439.4 212.9h14.2v14.2h-14.2z"/><path class="st3" d="M439.4 227.1h14.2v14.2h-14.2z"/><path class="st12" d="M439.4 241.2h14.2v14.2h-14.2z"/><path class="st5" d="M425.2 227.1h14.2v14.2h-14.2z"/><path class="st6" d="M425.2 241.2h14.2v14.2h-14.2z"/><path class="st2" d="M396.8 212.9H411v14.2h-14.2z"/><path class="st3" d="M396.8 227.1H411v14.2h-14.2z"/><path class="st8" d="M396.8 241.2H411v14.2h-14.2z"/><path class="st4" d="M382.7 212.9h14.2v14.2h-14.2z"/><path class="st5" d="M382.7 227.1h14.2v14.2h-14.2z"/><path class="st14" d="M382.7 241.2h14.2v14.2h-14.2z"/><path class="st0" d="M382.7 283.7h14.2v14.2h-14.2z"/><path class="st1" d="M396.8 283.7H411v14.2h-14.2z"/><path class="st2" d="M382.7 269.6h14.2v14.2h-14.2z"/><path class="st3" d="M396.8 269.6H411v14.2h-14.2z"/><path class="st4" d="M382.7 255.4h14.2v14.2h-14.2z"/><path class="st5" d="M396.8 255.4H411v14.2h-14.2z"/><path class="st0" d="M425.2 255.4h14.2v14.2h-14.2z"/><path class="st1" d="M425.2 269.6h14.2v14.2h-14.2z"/><path class="st7" d="M425.2 283.7h14.2v14.2h-14.2z"/><path class="st2" d="M439.4 255.4h14.2v14.2h-14.2z"/><path class="st3" d="M439.4 269.6h14.2v14.2h-14.2z"/><path class="st8" d="M439.4 283.7h14.2v14.2h-14.2z"/><path class="st4" d="M453.5 255.4h14.2v14.2h-14.2z"/><path class="st5" d="M453.5 269.6h14.2v14.2h-14.2z"/><path class="st9" d="M453.5 283.7h14.2v14.2h-14.2z"/><path class="st2" d="M481.9 283.7h14.2v14.2h-14.2z"/><path class="st10" d="M481.9 269.6h14.2v14.2h-14.2z"/><path class="st8" d="M481.9 255.4h14.2v14.2h-14.2z"/><path class="st4" d="M467.7 283.7h14.2v14.2h-14.2z"/><path class="st11" d="M467.7 269.6h14.2v14.2h-14.2z"/><path class="st6" d="M467.7 255.4h14.2v14.2h-14.2z"/><path class="st0" d="M354.3 411.3h14.2v14.2h-14.2z"/><path class="st1" d="M354.3 397.1h14.2v14.2h-14.2z"/><path class="st15" d="M354.3 383h14.2v14.2h-14.2z"/><path class="st2" d="M368.5 411.3h14.2v14.2h-14.2z"/><path class="st10" d="M368.5 397.1h14.2v14.2h-14.2z"/><path class="st8" d="M368.5 383h14.2v14.2h-14.2z"/><path class="st16" d="M340.2 383h14.2v14.2h-14.2z"/><path class="st4" d="M340.2 397.1h14.2v14.2h-14.2z"/><path class="st7" d="M340.2 411.3h14.2v14.2h-14.2z"/><path class="st2" d="M326 383h14.2v14.2H326z"/><path class="st3" d="M326 397.1h14.2v14.2H326z"/><path class="st12" d="M326 411.3h14.2v14.2H326z"/><path class="st13" d="M311.8 383H326v14.2h-14.2z"/><path class="st5" d="M311.8 397.1H326v14.2h-14.2z"/><path class="st6" d="M311.8 411.3H326v14.2h-14.2z"/><path class="st0" d="M297.6 383h14.2v14.2h-14.2z"/><path class="st1" d="M297.6 397.1h14.2v14.2h-14.2z"/><path class="st7" d="M297.6 411.3h14.2v14.2h-14.2zM297.6 340.4h14.2v14.2h-14.2z"/><path class="st8" d="M297.6 354.6h14.2v14.2h-14.2z"/><path class="st6" d="M297.6 368.8h14.2V383h-14.2z"/><path class="st0" d="M311.8 368.8H326V383h-14.2z"/><path class="st1" d="M311.8 354.6H326v14.2h-14.2z"/><path class="st7" d="M311.8 340.4H326v14.2h-14.2z"/><path class="st2" d="M326 368.8h14.2V383H326z"/><path class="st3" d="M326 354.6h14.2v14.2H326z"/><path class="st8" d="M326 340.4h14.2v14.2H326z"/><path class="st4" d="M340.2 368.8h14.2V383h-14.2z"/><path class="st5" d="M340.2 354.6h14.2v14.2h-14.2z"/><path class="st9" d="M340.2 340.4h14.2v14.2h-14.2z"/><path class="st2" d="M368.5 340.4h14.2v14.2h-14.2z"/><path class="st10" d="M368.5 354.6h14.2v14.2h-14.2z"/><path class="st8" d="M368.5 368.8h14.2V383h-14.2z"/><path class="st4" d="M354.3 340.4h14.2v14.2h-14.2z"/><path class="st11" d="M354.3 354.6h14.2v14.2h-14.2z"/><path class="st6" d="M354.3 368.8h14.2V383h-14.2z"/><path class="st0" d="M354.3 297.9h14.2v14.2h-14.2z"/><path class="st1" d="M354.3 312.1h14.2v14.2h-14.2z"/><path class="st15" d="M354.3 326.3h14.2v14.2h-14.2z"/><path class="st2" d="M368.5 297.9h14.2v14.2h-14.2z"/><path class="st10" d="M368.5 312.1h14.2v14.2h-14.2z"/><path class="st8" d="M368.5 326.3h14.2v14.2h-14.2z"/><path class="st16" d="M340.2 326.3h14.2v14.2h-14.2z"/><path class="st4" d="M340.2 312.1h14.2v14.2h-14.2z"/><path class="st7" d="M340.2 297.9h14.2v14.2h-14.2z"/><path class="st2" d="M326 326.3h14.2v14.2H326z"/><path class="st3" d="M326 312.1h14.2v14.2H326z"/><path class="st12" d="M326 297.9h14.2v14.2H326z"/><path class="st13" d="M311.8 326.3H326v14.2h-14.2z"/><path class="st5" d="M311.8 312.1H326v14.2h-14.2z"/><path class="st6" d="M311.8 297.9H326v14.2h-14.2z"/><path class="st0" d="M297.6 326.3h14.2v14.2h-14.2z"/><path class="st1" d="M297.6 312.1h14.2v14.2h-14.2z"/><path class="st7" d="M297.6 297.9h14.2v14.2h-14.2zM297.6 170.4h14.2v14.2h-14.2z"/><path class="st8" d="M297.6 184.5h14.2v14.2h-14.2z"/><path class="st6" d="M297.6 198.7h14.2v14.2h-14.2z"/><path class="st0" d="M311.8 198.7H326v14.2h-14.2z"/><path class="st1" d="M311.8 184.5H326v14.2h-14.2z"/><path class="st7" d="M311.8 170.4H326v14.2h-14.2z"/><path class="st2" d="M326 198.7h14.2v14.2H326z"/><path class="st3" d="M326 184.5h14.2v14.2H326z"/><path class="st8" d="M326 170.4h14.2v14.2H326z"/><path class="st4" d="M340.2 198.7h14.2v14.2h-14.2z"/><path class="st5" d="M340.2 184.5h14.2v14.2h-14.2z"/><path class="st9" d="M340.2 170.4h14.2v14.2h-14.2z"/><path class="st2" d="M368.5 170.4h14.2v14.2h-14.2z"/><path class="st10" d="M368.5 184.5h14.2v14.2h-14.2z"/><path class="st8" d="M368.5 198.7h14.2v14.2h-14.2z"/><path class="st4" d="M354.3 170.4h14.2v14.2h-14.2z"/><path class="st11" d="M354.3 184.5h14.2v14.2h-14.2z"/><path class="st6" d="M354.3 198.7h14.2v14.2h-14.2z"/><path class="st7" d="M297.6 127.8h14.2V142h-14.2z"/><path class="st8" d="M297.6 142h14.2v14.2h-14.2z"/><path class="st6" d="M297.6 156.2h14.2v14.2h-14.2z"/><path class="st0" d="M311.8 156.2H326v14.2h-14.2z"/><path class="st1" d="M311.8 142H326v14.2h-14.2z"/><path class="st7" d="M311.8 127.8H326V142h-14.2z"/><path class="st2" d="M326 156.2h14.2v14.2H326z"/><path class="st3" d="M326 142h14.2v14.2H326z"/><path class="st8" d="M326 127.8h14.2V142H326z"/><path class="st4" d="M340.2 156.2h14.2v14.2h-14.2z"/><path class="st5" d="M340.2 142h14.2v14.2h-14.2z"/><path class="st9" d="M340.2 127.8h14.2V142h-14.2z"/><path class="st2" d="M368.5 127.8h14.2V142h-14.2z"/><path class="st10" d="M368.5 142h14.2v14.2h-14.2z"/><path class="st8" d="M368.5 156.2h14.2v14.2h-14.2z"/><path class="st4" d="M354.3 127.8h14.2V142h-14.2z"/><path class="st11" d="M354.3 142h14.2v14.2h-14.2z"/><path class="st6" d="M354.3 156.2h14.2v14.2h-14.2z"/><path class="st0" d="M354.3 241.2h14.2v14.2h-14.2z"/><path class="st1" d="M354.3 227.1h14.2v14.2h-14.2z"/><path class="st15" d="M354.3 212.9h14.2v14.2h-14.2z"/><path class="st2" d="M368.5 241.2h14.2v14.2h-14.2z"/><path class="st10" d="M368.5 227.1h14.2v14.2h-14.2z"/><path class="st8" d="M368.5 212.9h14.2v14.2h-14.2z"/><path class="st16" d="M340.2 212.9h14.2v14.2h-14.2z"/><path class="st4" d="M340.2 227.1h14.2v14.2h-14.2z"/><path class="st7" d="M340.2 241.2h14.2v14.2h-14.2z"/><path class="st2" d="M326 212.9h14.2v14.2H326z"/><path class="st3" d="M326 227.1h14.2v14.2H326z"/><path class="st12" d="M326 241.2h14.2v14.2H326z"/><path class="st13" d="M311.8 212.9H326v14.2h-14.2z"/><path class="st5" d="M311.8 227.1H326v14.2h-14.2z"/><path class="st6" d="M311.8 241.2H326v14.2h-14.2z"/><path class="st0" d="M297.6 212.9h14.2v14.2h-14.2z"/><path class="st1" d="M297.6 227.1h14.2v14.2h-14.2z"/><path class="st7" d="M297.6 241.2h14.2v14.2h-14.2zM297.6 283.7h14.2v14.2h-14.2z"/><path class="st8" d="M297.6 269.6h14.2v14.2h-14.2z"/><path class="st6" d="M297.6 255.4h14.2v14.2h-14.2z"/><path class="st0" d="M311.8 255.4H326v14.2h-14.2z"/><path class="st1" d="M311.8 269.6H326v14.2h-14.2z"/><path class="st7" d="M311.8 283.7H326v14.2h-14.2z"/><path class="st2" d="M326 255.4h14.2v14.2H326z"/><path class="st3" d="M326 269.6h14.2v14.2H326z"/><path class="st8" d="M326 283.7h14.2v14.2H326z"/><path class="st4" d="M340.2 255.4h14.2v14.2h-14.2z"/><path class="st5" d="M340.2 269.6h14.2v14.2h-14.2z"/><path class="st9" d="M340.2 283.7h14.2v14.2h-14.2z"/><path class="st2" d="M368.5 283.7h14.2v14.2h-14.2z"/><path class="st10" d="M368.5 269.6h14.2v14.2h-14.2z"/><path class="st8" d="M368.5 255.4h14.2v14.2h-14.2z"/><path class="st4" d="M354.3 283.7h14.2v14.2h-14.2z"/><path class="st11" d="M354.3 269.6h14.2v14.2h-14.2z"/><path class="st6" d="M354.3 255.4h14.2v14.2h-14.2z"/><path class="st4" d="M581.1 255.4h14.2v14.2h-14.2z"/><path class="st5" d="M581.1 269.6h14.2v14.2h-14.2z"/><path class="st14" d="M581.1 283.7h14.2v14.2h-14.2z"/><path class="st0" d="M581.1 85.3h14.2v14.2h-14.2z"/><path class="st2" d="M581.1 99.5h14.2v14.2h-14.2z"/><path class="st4" d="M581.1 113.7h14.2v14.2h-14.2z"/><path class="st0" d="M467.7 85.3h14.2v14.2h-14.2z"/><path class="st1" d="M467.7 99.5h14.2v14.2h-14.2z"/><path class="st15" d="M467.7 113.7h14.2v14.2h-14.2z"/><path class="st2" d="M439.4 113.7h14.2v14.2h-14.2zM396.8 113.7H411v14.2h-14.2z"/><path class="st3" d="M396.8 99.5H411v14.2h-14.2z"/><path class="st8" d="M396.8 85.3H411v14.2h-14.2z"/><path class="st4" d="M382.7 113.7h14.2v14.2h-14.2z"/><path class="st0" d="M581.1 28.6h14.2v14.2h-14.2z"/><path class="st2" d="M581.1 14.5h14.2v14.2h-14.2z"/><path class="st3" d="M396.8 14.5H411v14.2h-14.2z"/><path class="st8" d="M396.8 28.6H411v14.2h-14.2z"/><path class="st1" d="M396.8 71.1H411v14.2h-14.2z"/><path class="st3" d="M396.8 57H411v14.2h-14.2z"/><path class="st5" d="M396.8 42.8H411V57h-14.2z"/><path class="st4" d="M467.7 71.1h14.2v14.2h-14.2z"/><path class="st11" d="M467.7 57h14.2v14.2h-14.2z"/><path class="st0" d="M354.3 85.3h14.2v14.2h-14.2z"/><path class="st1" d="M354.3 99.5h14.2v14.2h-14.2z"/><path class="st15" d="M354.3 113.7h14.2v14.2h-14.2z"/><path class="st2" d="M368.5 85.3h14.2v14.2h-14.2z"/><path class="st10" d="M368.5 99.5h14.2v14.2h-14.2z"/><path class="st8" d="M368.5 113.7h14.2v14.2h-14.2z"/><path class="st16" d="M340.2 113.7h14.2v14.2h-14.2z"/><path class="st4" d="M340.2 99.5h14.2v14.2h-14.2z"/><path class="st7" d="M340.2 85.3h14.2v14.2h-14.2z"/><path class="st13" d="M311.8 113.7H326v14.2h-14.2z"/><path class="st5" d="M311.8 99.5H326v14.2h-14.2z"/><path class="st6" d="M311.8 85.3H326v14.2h-14.2z"/><path class="st0" d="M297.6 113.7h14.2v14.2h-14.2z"/><path class="st1" d="M297.6 99.5h14.2v14.2h-14.2z"/><path class="st7" d="M297.6 85.3h14.2v14.2h-14.2z"/><path class="st0" d="M354.3 28.6h14.2v14.2h-14.2z"/><path class="st1" d="M354.3 14.5h14.2v14.2h-14.2z"/><path class="st2" d="M368.5 28.6h14.2v14.2h-14.2z"/><path class="st10" d="M368.5 14.5h14.2v14.2h-14.2z"/><path class="st4" d="M340.2 14.5h14.2v14.2h-14.2z"/><path class="st7" d="M340.2 28.6h14.2v14.2h-14.2z"/><path class="st5" d="M311.8 14.5H326v14.2h-14.2z"/><path class="st6" d="M311.8 28.6H326v14.2h-14.2z"/><path class="st7" d="M297.6 71.1h14.2v14.2h-14.2z"/><path class="st8" d="M297.6 57h14.2v14.2h-14.2z"/><path class="st6" d="M297.6 42.8h14.2V57h-14.2z"/><path class="st0" d="M311.8 42.8H326V57h-14.2z"/><path class="st1" d="M311.8 57H326v14.2h-14.2z"/><path class="st7" d="M311.8 71.1H326v14.2h-14.2z"/><path class="st4" d="M340.2 42.8h14.2V57h-14.2z"/><path class="st5" d="M340.2 57h14.2v14.2h-14.2z"/><path class="st9" d="M340.2 71.1h14.2v14.2h-14.2z"/><path class="st2" d="M368.5 71.1h14.2v14.2h-14.2z"/><path class="st10" d="M368.5 57h14.2v14.2h-14.2z"/><path class="st8" d="M368.5 42.8h14.2V57h-14.2z"/><path class="st4" d="M354.3 71.1h14.2v14.2h-14.2z"/><path class="st11" d="M354.3 57h14.2v14.2h-14.2z"/><path class="st6" d="M354.3 42.8h14.2V57h-14.2z"/><path class="st4" d="M581.1 42.8h14.2V57h-14.2z"/><path class="st5" d="M581.1 57h14.2v14.2h-14.2z"/><path class="st14" d="M581.1 71.2h14.2v14.2h-14.2z"/><path class="st7" d="M255.1 411.3h14.2v14.2h-14.2z"/><path class="st8" d="M255.1 397.1h14.2v14.2h-14.2z"/><path class="st6" d="M255.1 383h14.2v14.2h-14.2z"/><path class="st0" d="M240.9 383h14.2v14.2h-14.2z"/><path class="st1" d="M240.9 397.1h14.2v14.2h-14.2z"/><path class="st7" d="M240.9 411.3h14.2v14.2h-14.2z"/><path class="st2" d="M226.8 383H241v14.2h-14.2z"/><path class="st3" d="M226.8 397.1H241v14.2h-14.2z"/><path class="st8" d="M226.8 411.3H241v14.2h-14.2z"/><path class="st4" d="M212.6 383h14.2v14.2h-14.2z"/><path class="st5" d="M212.6 397.1h14.2v14.2h-14.2z"/><path class="st9" d="M212.6 411.3h14.2v14.2h-14.2z"/><path class="st0" d="M170.1 411.3h14.2v14.2h-14.2z"/><path class="st1" d="M170.1 397.1h14.2v14.2h-14.2z"/><path class="st15" d="M170.1 383h14.2v14.2h-14.2z"/><path class="st2" d="M184.3 411.3h14.2v14.2h-14.2z"/><path class="st10" d="M184.3 397.1h14.2v14.2h-14.2z"/><path class="st8" d="M184.3 383h14.2v14.2h-14.2z"/><path class="st4" d="M198.4 411.3h14.2v14.2h-14.2z"/><path class="st11" d="M198.4 397.1h14.2v14.2h-14.2z"/><path class="st6" d="M198.4 383h14.2v14.2h-14.2z"/><path class="st16" d="M155.9 383h14.2v14.2h-14.2z"/><path class="st4" d="M155.9 397.1h14.2v14.2h-14.2z"/><path class="st7" d="M155.9 411.3h14.2v14.2h-14.2z"/><path class="st2" d="M141.7 383h14.2v14.2h-14.2z"/><path class="st3" d="M141.7 397.1h14.2v14.2h-14.2z"/><path class="st12" d="M141.7 411.3h14.2v14.2h-14.2z"/><path class="st13" d="M127.6 383h14.2v14.2h-14.2z"/><path class="st5" d="M127.6 397.1h14.2v14.2h-14.2z"/><path class="st6" d="M127.6 411.3h14.2v14.2h-14.2z"/><path class="st0" d="M113.4 383h14.2v14.2h-14.2z"/><path class="st1" d="M113.4 397.1h14.2v14.2h-14.2z"/><path class="st7" d="M113.4 411.3h14.2v14.2h-14.2z"/><path class="st2" d="M99.2 383h14.2v14.2H99.2z"/><path class="st3" d="M99.2 397.1h14.2v14.2H99.2z"/><path class="st8" d="M99.2 411.3h14.2v14.2H99.2z"/><path class="st4" d="M85 383h14.2v14.2H85z"/><path class="st5" d="M85 397.1h14.2v14.2H85z"/><path class="st14" d="M85 411.3h14.2v14.2H85z"/><path class="st0" d="M85 340.4h14.2v14.2H85z"/><path class="st1" d="M99.2 340.4h14.2v14.2H99.2z"/><path class="st7" d="M113.4 340.4h14.2v14.2h-14.2z"/><path class="st2" d="M85 354.6h14.2v14.2H85z"/><path class="st3" d="M99.2 354.6h14.2v14.2H99.2z"/><path class="st8" d="M113.4 354.6h14.2v14.2h-14.2z"/><path class="st4" d="M85 368.8h14.2V383H85z"/><path class="st5" d="M99.2 368.8h14.2V383H99.2z"/><path class="st6" d="M113.4 368.8h14.2V383h-14.2z"/><path class="st0" d="M127.6 368.8h14.2V383h-14.2z"/><path class="st1" d="M127.6 354.6h14.2v14.2h-14.2z"/><path class="st7" d="M127.6 340.4h14.2v14.2h-14.2z"/><path class="st2" d="M141.7 368.8h14.2V383h-14.2z"/><path class="st3" d="M141.7 354.6h14.2v14.2h-14.2z"/><path class="st8" d="M141.7 340.4h14.2v14.2h-14.2z"/><path class="st4" d="M155.9 368.8h14.2V383h-14.2z"/><path class="st5" d="M155.9 354.6h14.2v14.2h-14.2z"/><path class="st9" d="M155.9 340.4h14.2v14.2h-14.2z"/><path class="st0" d="M198.4 340.4h14.2v14.2h-14.2z"/><path class="st1" d="M198.4 354.6h14.2v14.2h-14.2z"/><path class="st15" d="M198.4 368.8h14.2V383h-14.2z"/><path class="st2" d="M184.3 340.4h14.2v14.2h-14.2z"/><path class="st10" d="M184.3 354.6h14.2v14.2h-14.2z"/><path class="st8" d="M184.3 368.8h14.2V383h-14.2z"/><path class="st4" d="M170.1 340.4h14.2v14.2h-14.2z"/><path class="st11" d="M170.1 354.6h14.2v14.2h-14.2z"/><path class="st6" d="M170.1 368.8h14.2V383h-14.2z"/><path class="st2" d="M226.8 368.8H241V383h-14.2z"/><path class="st3" d="M226.8 354.6H241v14.2h-14.2z"/><path class="st12" d="M226.8 340.4H241v14.2h-14.2z"/><path class="st13" d="M240.9 368.8h14.2V383h-14.2z"/><path class="st5" d="M240.9 354.6h14.2v14.2h-14.2z"/><path class="st6" d="M240.9 340.4h14.2v14.2h-14.2z"/><path class="st0" d="M255.1 368.8h14.2V383h-14.2z"/><path class="st1" d="M255.1 354.6h14.2v14.2h-14.2z"/><path class="st7" d="M255.1 340.4h14.2v14.2h-14.2zM255.1 297.9h14.2v14.2h-14.2z"/><path class="st8" d="M255.1 312.1h14.2v14.2h-14.2z"/><path class="st6" d="M255.1 326.3h14.2v14.2h-14.2z"/><path class="st0" d="M240.9 326.3h14.2v14.2h-14.2z"/><path class="st1" d="M240.9 312.1h14.2v14.2h-14.2z"/><path class="st7" d="M240.9 297.9h14.2v14.2h-14.2z"/><path class="st2" d="M226.8 326.3H241v14.2h-14.2z"/><path class="st3" d="M226.8 312.1H241v14.2h-14.2z"/><path class="st8" d="M226.8 297.9H241v14.2h-14.2z"/><path class="st0" d="M170.1 297.9h14.2v14.2h-14.2z"/><path class="st1" d="M170.1 312.1h14.2v14.2h-14.2z"/><path class="st15" d="M170.1 326.3h14.2v14.2h-14.2z"/><path class="st2" d="M184.3 297.9h14.2v14.2h-14.2z"/><path class="st10" d="M184.3 312.1h14.2v14.2h-14.2z"/><path class="st8" d="M184.3 326.3h14.2v14.2h-14.2z"/><path class="st4" d="M198.4 297.9h14.2v14.2h-14.2z"/><path class="st11" d="M198.4 312.1h14.2v14.2h-14.2z"/><path class="st6" d="M198.4 326.3h14.2v14.2h-14.2z"/><path class="st16" d="M155.9 326.3h14.2v14.2h-14.2z"/><path class="st4" d="M155.9 312.1h14.2v14.2h-14.2z"/><path class="st7" d="M155.9 297.9h14.2v14.2h-14.2z"/><path class="st2" d="M141.7 326.3h14.2v14.2h-14.2z"/><path class="st3" d="M141.7 312.1h14.2v14.2h-14.2z"/><path class="st12" d="M141.7 297.9h14.2v14.2h-14.2z"/><path class="st13" d="M127.6 326.3h14.2v14.2h-14.2z"/><path class="st5" d="M127.6 312.1h14.2v14.2h-14.2z"/><path class="st6" d="M127.6 297.9h14.2v14.2h-14.2z"/><path class="st0" d="M113.4 326.3h14.2v14.2h-14.2z"/><path class="st1" d="M113.4 312.1h14.2v14.2h-14.2z"/><path class="st7" d="M113.4 297.9h14.2v14.2h-14.2z"/><path class="st2" d="M99.2 326.3h14.2v14.2H99.2z"/><path class="st3" d="M99.2 312.1h14.2v14.2H99.2z"/><path class="st8" d="M99.2 297.9h14.2v14.2H99.2z"/><path class="st4" d="M85 326.3h14.2v14.2H85z"/><path class="st5" d="M85 312.1h14.2v14.2H85z"/><path class="st14" d="M85 297.9h14.2v14.2H85z"/><path class="st2" d="M141.7 198.7h14.2v14.2h-14.2z"/><path class="st3" d="M141.7 184.5h14.2v14.2h-14.2z"/><path class="st4" d="M155.9 198.7h14.2v14.2h-14.2z"/><path class="st5" d="M155.9 184.5h14.2v14.2h-14.2z"/><path class="st9" d="M155.9 170.4h14.2v14.2h-14.2z"/><path class="st0" d="M198.4 170.4h14.2v14.2h-14.2z"/><path class="st1" d="M198.4 184.5h14.2v14.2h-14.2z"/><path class="st15" d="M198.4 198.7h14.2v14.2h-14.2z"/><path class="st8" d="M184.3 198.7h14.2v14.2h-14.2z"/><path class="st4" d="M170.1 170.4h14.2v14.2h-14.2z"/><path class="st11" d="M170.1 184.5h14.2v14.2h-14.2z"/><path class="st6" d="M170.1 198.7h14.2v14.2h-14.2z"/><path class="st13" d="M240.9 198.7h14.2v14.2h-14.2z"/><path class="st5" d="M240.9 184.5h14.2v14.2h-14.2z"/><path class="st6" d="M240.9 170.4h14.2v14.2h-14.2z"/><path class="st0" d="M255.1 198.7h14.2v14.2h-14.2z"/><path class="st1" d="M255.1 184.5h14.2v14.2h-14.2z"/><path class="st7" d="M255.1 170.4h14.2v14.2h-14.2z"/><path class="st4" d="M155.9 156.2h14.2v14.2h-14.2z"/><path class="st5" d="M155.9 142h14.2v14.2h-14.2z"/><path class="st9" d="M155.9 127.8h14.2V142h-14.2z"/><path class="st0" d="M198.4 127.8h14.2V142h-14.2z"/><path class="st1" d="M198.4 142h14.2v14.2h-14.2z"/><path class="st15" d="M198.4 156.2h14.2v14.2h-14.2z"/><path class="st4" d="M170.1 127.8h14.2V142h-14.2z"/><path class="st11" d="M170.1 142h14.2v14.2h-14.2z"/><path class="st6" d="M170.1 156.2h14.2v14.2h-14.2z"/><path class="st13" d="M240.9 156.2h14.2v14.2h-14.2z"/><path class="st5" d="M240.9 142h14.2v14.2h-14.2z"/><path class="st6" d="M240.9 127.8h14.2V142h-14.2z"/><path class="st0" d="M255.1 156.2h14.2v14.2h-14.2z"/><path class="st7" d="M255.1 241.2h14.2v14.2h-14.2z"/><path class="st8" d="M255.1 227.1h14.2v14.2h-14.2z"/><path class="st6" d="M255.1 212.9h14.2v14.2h-14.2z"/><path class="st0" d="M240.9 212.9h14.2v14.2h-14.2z"/><path class="st1" d="M240.9 227.1h14.2v14.2h-14.2z"/><path class="st7" d="M240.9 241.2h14.2v14.2h-14.2z"/><path class="st3" d="M226.8 227.1H241v14.2h-14.2z"/><path class="st8" d="M226.8 241.2H241v14.2h-14.2z"/><path class="st0" d="M170.1 241.2h14.2v14.2h-14.2z"/><path class="st1" d="M170.1 227.1h14.2v14.2h-14.2z"/><path class="st15" d="M170.1 212.9h14.2v14.2h-14.2z"/><path class="st2" d="M184.3 241.2h14.2v14.2h-14.2z"/><path class="st10" d="M184.3 227.1h14.2v14.2h-14.2z"/><path class="st8" d="M184.3 212.9h14.2v14.2h-14.2z"/><path class="st4" d="M198.4 241.2h14.2v14.2h-14.2z"/><path class="st11" d="M198.4 227.1h14.2v14.2h-14.2z"/><path class="st6" d="M198.4 212.9h14.2v14.2h-14.2z"/><path class="st16" d="M155.9 212.9h14.2v14.2h-14.2z"/><path class="st4" d="M155.9 227.1h14.2v14.2h-14.2z"/><path class="st7" d="M155.9 241.2h14.2v14.2h-14.2z"/><path class="st2" d="M141.7 212.9h14.2v14.2h-14.2z"/><path class="st3" d="M141.7 227.1h14.2v14.2h-14.2z"/><path class="st12" d="M141.7 241.2h14.2v14.2h-14.2z"/><path class="st0" d="M85 283.7h14.2v14.2H85z"/><path class="st1" d="M99.2 283.7h14.2v14.2H99.2z"/><path class="st7" d="M113.4 283.7h14.2v14.2h-14.2z"/><path class="st1" d="M127.6 269.6h14.2v14.2h-14.2z"/><path class="st7" d="M127.6 283.7h14.2v14.2h-14.2z"/><path class="st2" d="M141.7 255.4h14.2v14.2h-14.2z"/><path class="st3" d="M141.7 269.6h14.2v14.2h-14.2z"/><path class="st8" d="M141.7 283.7h14.2v14.2h-14.2z"/><path class="st4" d="M155.9 255.4h14.2v14.2h-14.2z"/><path class="st5" d="M155.9 269.6h14.2v14.2h-14.2z"/><path class="st9" d="M155.9 283.7h14.2v14.2h-14.2z"/><path class="st0" d="M198.4 283.7h14.2v14.2h-14.2z"/><path class="st1" d="M198.4 269.6h14.2v14.2h-14.2z"/><path class="st15" d="M198.4 255.4h14.2v14.2h-14.2z"/><path class="st2" d="M184.3 283.7h14.2v14.2h-14.2z"/><path class="st10" d="M184.3 269.6h14.2v14.2h-14.2z"/><path class="st8" d="M184.3 255.4h14.2v14.2h-14.2z"/><path class="st4" d="M170.1 283.7h14.2v14.2h-14.2z"/><path class="st11" d="M170.1 269.6h14.2v14.2h-14.2z"/><path class="st6" d="M170.1 255.4h14.2v14.2h-14.2z"/><path class="st2" d="M70.9 411.3h14.2v14.2H70.9z"/><path class="st10" d="M70.9 397.1h14.2v14.2H70.9z"/><path class="st8" d="M70.9 383h14.2v14.2H70.9z"/><path class="st2" d="M28.3 383h14.2v14.2H28.3z"/><path class="st3" d="M28.3 397.1h14.2v14.2H28.3z"/><path class="st12" d="M28.3 411.3h14.2v14.2H28.3z"/><path class="st2" d="M28.3 368.8h14.2V383H28.3z"/><path class="st3" d="M28.3 354.6h14.2v14.2H28.3z"/><path class="st8" d="M28.3 340.4h14.2v14.2H28.3z"/><path class="st2" d="M70.9 340.4h14.2v14.2H70.9z"/><path class="st10" d="M70.9 354.6h14.2v14.2H70.9z"/><path class="st8" d="M70.9 368.8h14.2V383H70.9z"/><path class="st2" d="M70.9 297.9h14.2v14.2H70.9z"/><path class="st10" d="M70.9 312.1h14.2v14.2H70.9z"/><path class="st8" d="M70.9 326.3h14.2v14.2H70.9z"/><path class="st2" d="M28.3 326.3h14.2v14.2H28.3z"/><path class="st3" d="M28.3 312.1h14.2v14.2H28.3z"/><path class="st12" d="M28.3 297.9h14.2v14.2H28.3z"/><path class="st3" d="M28.3 269.6h14.2v14.2H28.3z"/><path class="st8" d="M28.3 283.7h14.2v14.2H28.3z"/><path class="st2" d="M70.9 283.7h14.2v14.2H70.9zM226.8 255.4H241v14.2h-14.2z"/><path class="st3" d="M226.8 269.6H241v14.2h-14.2z"/><path class="st12" d="M226.8 283.7H241v14.2h-14.2z"/><path class="st13" d="M240.9 255.4h14.2v14.2h-14.2z"/><path class="st5" d="M240.9 269.6h14.2v14.2h-14.2z"/><path class="st6" d="M240.9 283.7h14.2v14.2h-14.2z"/><path class="st0" d="M255.1 255.4h14.2v14.2h-14.2z"/><path class="st1" d="M255.1 269.6h14.2v14.2h-14.2z"/><path class="st7" d="M255.1 283.7h14.2v14.2h-14.2z"/><path class="st0" d="M240.9 113.7h14.2v14.2h-14.2z"/><path class="st1" d="M240.9 99.5h14.2v14.2h-14.2z"/><path class="st7" d="M240.9 85.3h14.2v14.2h-14.2z"/><path class="st0" d="M170.1 85.3h14.2v14.2h-14.2z"/><path class="st1" d="M170.1 99.5h14.2v14.2h-14.2z"/><path class="st15" d="M170.1 113.7h14.2v14.2h-14.2z"/><path class="st4" d="M198.4 85.3h14.2v14.2h-14.2z"/><path class="st11" d="M198.4 99.5h14.2v14.2h-14.2z"/><path class="st6" d="M198.4 113.7h14.2v14.2h-14.2z"/><path class="st16" d="M155.9 113.7h14.2v14.2h-14.2z"/><path class="st0" d="M198.4 71.1h14.2v14.2h-14.2z"/><path class="st1" d="M198.4 57h14.2v14.2h-14.2z"/><path class="st4" d="M170.1 71.1h14.2v14.2h-14.2z"/><path class="st11" d="M170.1 57h14.2v14.2h-14.2z"/><path class="st5" d="M240.9 57h14.2v14.2h-14.2z"/><path class="st6" d="M240.9 71.1h14.2v14.2h-14.2z"/><path class="st1" d="M396.9.3h14.2v14.2h-14.2z"/><path class="st4" d="M354.3.3h14.2v14.2h-14.2z"/><path class="st5" d="M581.1 0h14.2v.3h-14.2z"/><path class="st14" d="M581.1.3h14.2v14.2h-14.2z"/></svg>